<svg width="100" height="55" viewBox="0 0 100 55" fill="none" xmlns="http://www.w3.org/2000/svg">
<path fill-rule="evenodd" clip-rule="evenodd" d="M83.5724 9.24194H85.2772C85.8197 9.24194 86.2847 9.33921 86.5945 9.63107C86.9046 9.82562 87.1369 10.2148 87.2918 10.5066C87.447 10.8957 87.5245 11.2849 87.6019 11.674C87.6794 12.1604 87.6794 12.5496 87.6794 12.8414V21.5969C87.6794 22.6671 87.8343 23.5426 88.2218 24.2236C88.6094 24.9046 89.0741 25.4883 89.694 25.8774C90.2365 26.2665 90.9338 26.5584 91.5537 26.753C92.2511 26.9475 92.871 27.0448 93.4134 27.0448V27.1421C92.932 27.1421 92.3895 27.2187 91.7861 27.304L91.5537 27.3366C90.8564 27.434 90.2365 27.7258 89.694 28.1149C89.1515 28.5041 88.6094 29.0878 88.2218 29.866C87.8343 30.6443 87.6794 31.7144 87.6794 32.9792V41.248C87.6794 41.6373 87.6794 42.0263 87.6019 42.4156C87.5245 42.9021 87.447 43.2911 87.2144 43.5832C87.0595 43.9721 86.7497 44.2639 86.3621 44.4587C85.9746 44.6532 85.5096 44.8476 84.8122 44.8476H83.495V54.4789H88.9967C89.7714 54.4789 90.5466 54.2841 91.3214 53.9923C92.0962 53.7006 92.871 53.2141 93.5686 52.6303C94.266 52.0465 94.8084 51.171 95.2731 50.1982C95.7381 49.2255 95.893 48.0579 95.893 46.6962V35.8002C95.893 34.9247 96.0482 34.2437 96.358 33.7574C96.6681 33.2709 97.0554 32.8819 97.5204 32.5899C97.9854 32.2982 98.4501 32.1037 98.9151 32.0061C99.3801 31.9089 99.7677 31.9089 100 31.9089V22.6671C99.6899 22.6671 99.3801 22.6671 98.9151 22.5698C98.4501 22.4725 97.9854 22.3752 97.5978 22.0833C97.1328 21.7915 96.823 21.4997 96.4355 21.0132C96.0482 20.5268 95.9705 19.9431 95.9705 19.1648V7.78268C95.9705 6.4207 95.7381 5.2533 95.3506 4.28046C94.8859 3.30764 94.3434 2.52937 93.6461 1.84838C92.9487 1.26469 92.2511 0.778268 91.3988 0.486417C90.624 0.194567 89.8492 0 89.0741 0H83.5724V9.24194ZM16.4274 9.2426H14.7226C14.1802 9.2426 13.7153 9.33988 13.4054 9.63173C13.0954 9.82632 12.863 10.2154 12.708 10.5073C12.553 10.8964 12.4755 11.2855 12.398 11.6747C12.3205 12.1611 12.3205 12.5502 12.3205 12.8421V21.5976C12.3205 22.6677 12.1655 23.5433 11.7781 24.2243C11.3907 24.9052 10.9257 25.489 10.3059 25.8781C9.76345 26.2672 9.06607 26.5591 8.44617 26.7536C7.74875 26.9482 7.12888 27.0455 6.58646 27.0455V27.1428C7.06784 27.1428 7.61029 27.2194 8.21376 27.3047L8.44617 27.3373C9.14355 27.4346 9.76345 27.7265 10.3059 28.1156C10.8483 28.5047 11.3907 29.0884 11.7781 29.8667C12.1655 30.645 12.3205 31.715 12.3205 32.9798V41.249C12.3205 41.638 12.3205 42.0273 12.398 42.4162C12.4755 42.9028 12.553 43.2917 12.7855 43.5838C12.9404 43.9728 13.2504 44.2648 13.6378 44.4593C14.0253 44.6538 14.4902 44.8483 15.1876 44.8483H16.5049V54.4795H11.0033C10.2284 54.4795 9.4535 54.2847 8.67861 53.993C7.90374 53.7012 7.12888 53.2147 6.43147 52.6309C5.73408 52.0475 5.19166 51.1716 4.72675 50.1989C4.26181 49.2261 4.10685 48.0586 4.10685 46.6968V35.8011C4.10685 34.9253 3.95186 34.2446 3.6419 33.7581C3.33198 33.2715 2.94453 32.8826 2.4796 32.5905C2.01468 32.2988 1.54975 32.1043 1.08483 32.0071C0.619903 31.9098 0.232463 31.9095 0 31.9095V22.6677C0.309946 22.6677 0.619909 22.6677 1.08483 22.5704C1.54975 22.4732 2.01468 22.3759 2.40212 22.084C2.86704 21.7922 3.17699 21.5003 3.56442 21.0139C3.95186 20.5275 4.02937 19.9438 4.02937 19.1655V7.78335C4.02937 6.4214 4.26181 5.25397 4.64927 4.28115C5.11418 3.30831 5.6566 2.53005 6.35399 1.84906C7.05137 1.26536 7.74875 0.778946 8.60113 0.487095C9.37602 0.195244 10.1509 0.000677366 10.9257 0.000677366H16.4274V9.2426ZM66.4317 34.3995L34.3766 1.94556H26.7534V9.6636L58.8086 42.1175L53.0979 47.8993L56.8961 51.7446L63.4684 45.0082L72.1423 53.6537C73.1928 54.7174 74.89 54.7174 75.9404 53.6537L77.8529 51.7174C78.9034 50.6537 78.9034 48.9357 77.8529 47.872L69.2868 39.1993L75.9404 32.4632L72.1423 28.6178L66.4317 34.3995ZM73.2468 9.63633L60.4786 22.5634L52.8555 14.8726L65.6234 1.94556H73.2468V9.63633ZM39.5214 28.3723L47.1448 36.1993L41.1918 42.1175L46.9024 47.8993L43.1043 51.7446L36.5316 45.0082L27.8578 53.681C26.8073 54.7446 25.1102 54.7446 24.0597 53.681L22.1472 51.7446C21.0966 50.681 21.0966 48.9629 22.1472 47.8993L30.7131 39.1993L24.0597 32.4632L27.8578 28.6178L33.5683 34.3995L39.5214 28.3723Z" fill="white"/>
</svg>
