<svg width="192" height="192" viewBox="0 0 192 192" fill="none" xmlns="http://www.w3.org/2000/svg">
<rect width="192" height="192" rx="96" fill="black"/>
<path d="M64.3398 98.1172H94.2812V139.66C89.7891 141.184 85.1602 142.316 80.3945 143.059C75.668 143.801 70.375 144.172 64.5156 144.172C55.6094 144.172 48.0898 142.395 41.957 138.84C35.8633 135.285 31.2344 130.227 28.0703 123.664C24.9062 117.062 23.3242 109.23 23.3242 100.168C23.3242 91.3008 25.0625 83.5664 28.5391 76.9648C32.0547 70.3633 37.1133 65.2461 43.7148 61.6133C50.3555 57.9414 58.3242 56.1055 67.6211 56.1055C72.3867 56.1055 76.8984 56.5547 81.1562 57.4531C85.4531 58.3125 89.4375 59.543 93.1094 61.1445L89.3008 69.8164C86.1367 68.4492 82.6406 67.2773 78.8125 66.3008C75.0234 65.3242 71.0977 64.8359 67.0352 64.8359C60.043 64.8359 54.0469 66.2812 49.0469 69.1719C44.0859 72.0625 40.2773 76.1445 37.6211 81.418C35.0039 86.6914 33.6953 92.9414 33.6953 100.168C33.6953 107.316 34.8477 113.547 37.1523 118.859C39.457 124.133 43.0508 128.234 47.9336 131.164C52.8164 134.094 59.1055 135.559 66.8008 135.559C70.668 135.559 73.9883 135.344 76.7617 134.914C79.5352 134.445 82.0547 133.898 84.3203 133.273V107.023H64.3398V98.1172ZM137.406 57.3359C148.461 57.3359 156.527 59.5039 161.605 63.8398C166.723 68.1367 169.281 74.3086 169.281 82.3555C169.281 85.9883 168.676 89.4453 167.465 92.7266C166.293 95.9688 164.379 98.8398 161.723 101.34C159.066 103.801 155.57 105.754 151.234 107.199C146.938 108.605 141.664 109.309 135.414 109.309H124.984V143H115.023V57.3359H137.406ZM136.469 65.832H124.984V100.754H134.301C139.77 100.754 144.32 100.168 147.953 98.9961C151.625 97.8242 154.379 95.9297 156.215 93.3125C158.051 90.6562 158.969 87.1406 158.969 82.7656C158.969 77.0625 157.152 72.8242 153.52 70.0508C149.887 67.2383 144.203 65.832 136.469 65.832Z" fill="#F5F5F5"/>
</svg>
